<svg xmlns="http://www.w3.org/2000/svg" viewBox="0 0 220 220" width="220" height="220" font-family="ui-monospace,Menlo,Consolas,monospace" role="img" aria-label="Spindleloom — the agent walking the lifecycle">
  <rect width="220" height="220" rx="31" fill="#12151F"/>
  <path d="M 169.40,110.00 L 169.31,112.38 L 169.05,114.75 L 168.62,117.06 L 168.02,119.31 L 167.27,121.47 L 166.37,123.52 L 165.34,125.45 L 164.18,127.25 L 162.92,128.90 L 161.57,130.40 L 160.14,131.74 L 158.64,132.92 L 157.09,133.94 L 155.50,134.80 L 153.88,135.50 L 152.25,136.05 L 150.61,136.46 L 148.97,136.72 L 147.33,136.86 L 145.72,136.87 L 144.12,136.77 L 142.55,136.55 L 141.00,136.24 L 139.48,135.83 L 138.00,135.34 L 136.55,134.78 L 135.14,134.14 L 133.76,133.43 L 132.41,132.67 L 131.10,131.85 L 129.83,130.99 L 128.58,130.08 L 127.37,129.14 L 126.19,128.16 L 125.03,127.14 L 123.91,126.11 L 122.81,125.04 L 121.73,123.96 L 120.67,122.85 L 119.64,121.73 L 118.62,120.60 L 117.62,119.45 L 116.64,118.29 L 115.66,117.12 L 114.70,115.95 L 113.75,114.76 L 112.81,113.58 L 111.87,112.39 L 110.93,111.19 L 110.00,110.00 L 109.07,108.81 L 108.13,107.61 L 107.19,106.42 L 106.25,105.24 L 105.30,104.05 L 104.34,102.88 L 103.36,101.71 L 102.38,100.55 L 101.38,99.40 L 100.36,98.27 L 99.33,97.15 L 98.27,96.04 L 97.19,94.96 L 96.09,93.89 L 94.97,92.86 L 93.81,91.84 L 92.63,90.86 L 91.42,89.92 L 90.17,89.01 L 88.90,88.15 L 87.59,87.33 L 86.24,86.57 L 84.86,85.86 L 83.45,85.22 L 82.00,84.66 L 80.52,84.17 L 79.00,83.76 L 77.45,83.45 L 75.88,83.23 L 74.28,83.13 L 72.67,83.14 L 71.03,83.28 L 69.39,83.54 L 67.75,83.95 L 66.12,84.50 L 64.50,85.20 L 62.91,86.06 L 61.36,87.08 L 59.86,88.26 L 58.43,89.60 L 57.08,91.10 L 55.82,92.75 L 54.66,94.55 L 53.63,96.48 L 52.73,98.53 L 51.98,100.69 L 51.38,102.94 L 50.95,105.25 L 50.69,107.62 L 50.60,110.00 L 50.69,112.38 L 50.95,114.75 L 51.38,117.06 L 51.98,119.31 L 52.73,121.47 L 53.63,123.52 L 54.66,125.45 L 55.82,127.25 L 57.08,128.90 L 58.43,130.40 L 59.86,131.74 L 61.36,132.92 L 62.91,133.94 L 64.50,134.80 L 66.12,135.50 L 67.75,136.05 L 69.39,136.46 L 71.03,136.72 L 72.67,136.86 L 74.28,136.87 L 75.88,136.77 L 77.45,136.55 L 79.00,136.24 L 80.52,135.83 L 82.00,135.34 L 83.45,134.78 L 84.86,134.14 L 86.24,133.43 L 87.59,132.67 L 88.90,131.85 L 90.17,130.99 L 91.42,130.08 L 92.63,129.14 L 93.81,128.16 L 94.97,127.14 L 96.09,126.11 L 97.19,125.04 L 98.27,123.96 L 99.33,122.85 L 100.36,121.73 L 101.38,120.60 L 102.38,119.45 L 103.36,118.29 L 104.34,117.12 L 105.30,115.95 L 106.25,114.76 L 107.19,113.58 L 108.13,112.39 L 109.07,111.19 L 110.00,110.00 L 110.93,108.81 L 111.87,107.61 L 112.81,106.42 L 113.75,105.24 L 114.70,104.05 L 115.66,102.88 L 116.64,101.71 L 117.62,100.55 L 118.62,99.40 L 119.64,98.27 L 120.67,97.15 L 121.73,96.04 L 122.81,94.96 L 123.91,93.89 L 125.03,92.86 L 126.19,91.84 L 127.37,90.86 L 128.58,89.92 L 129.83,89.01 L 131.10,88.15 L 132.41,87.33 L 133.76,86.57 L 135.14,85.86 L 136.55,85.22 L 138.00,84.66 L 139.48,84.17 L 141.00,83.76 L 142.55,83.45 L 144.12,83.23 L 145.72,83.13 L 147.33,83.14 L 148.97,83.28 L 150.61,83.54 L 152.25,83.95 L 153.88,84.50 L 155.50,85.20 L 157.09,86.06 L 158.64,87.08 L 160.14,88.26 L 161.57,89.60 L 162.92,91.10 L 164.18,92.75 L 165.34,94.55 L 166.37,96.48 L 167.27,98.53 L 168.02,100.69 L 168.62,102.94 L 169.05,105.25 L 169.31,107.62 L 169.40,110.00 Z" fill="none" stroke="#AEB7C6" stroke-opacity="0.20" stroke-width="9.24" stroke-linecap="round" stroke-linejoin="round"/>
  <path d="M 110.00,110.00 L 109.07,108.81 L 108.13,107.61 L 107.19,106.42 L 106.25,105.24 L 105.30,104.05 L 104.34,102.88 L 103.36,101.71 L 102.38,100.55 L 101.38,99.40 L 100.36,98.27 L 99.33,97.15 L 98.27,96.04 L 97.19,94.96 L 96.09,93.89 L 94.97,92.86 L 93.81,91.84 L 92.63,90.86 L 91.42,89.92 L 90.17,89.01 L 88.90,88.15 L 87.59,87.33 L 86.24,86.57 L 84.86,85.86 L 83.45,85.22 L 82.00,84.66 L 80.52,84.17 L 79.00,83.76 L 77.45,83.45 L 75.88,83.23 L 74.28,83.13 L 72.67,83.14 L 71.03,83.28 L 69.39,83.54 L 67.75,83.95 L 66.12,84.50 L 64.50,85.20 L 62.91,86.06 L 61.36,87.08 L 59.86,88.26 L 58.43,89.60 L 57.08,91.10 L 55.82,92.75 L 54.66,94.55 L 53.63,96.48 L 52.73,98.53 L 51.98,100.69 L 51.38,102.94 L 50.95,105.25 L 50.69,107.62 L 50.60,110.00 L 50.69,112.38 L 50.95,114.75 L 51.38,117.06 L 51.98,119.31 L 52.73,121.47 L 53.63,123.52 L 54.66,125.45 L 55.82,127.25 L 57.08,128.90 L 58.43,130.40 L 59.86,131.74 L 61.36,132.92 L 62.91,133.94 L 64.50,134.80 L 66.12,135.50 L 67.75,136.05 L 69.39,136.46 L 71.03,136.72 L 72.67,136.86 L 74.28,136.87 L 75.88,136.77 L 77.45,136.55 L 79.00,136.24 L 80.52,135.83 L 82.00,135.34 L 83.45,134.78 L 84.86,134.14 L 86.24,133.43 L 87.59,132.67 L 88.90,131.85 L 90.17,130.99 L 91.42,130.08 L 92.63,129.14 L 93.81,128.16 L 94.97,127.14 L 96.09,126.11 L 97.19,125.04 L 98.27,123.96 L 99.33,122.85 L 100.36,121.73 L 101.38,120.60 L 102.38,119.45 L 103.36,118.29 L 104.34,117.12 L 105.30,115.95 L 106.25,114.76 L 107.19,113.58 L 108.13,112.39 L 109.07,111.19 L 110.00,110.00" fill="none" stroke="#2E6FB5" stroke-width="9.24" stroke-linecap="round" stroke-linejoin="round"/>
  <path d="M 110.00,110.00 L 110.93,108.81 L 111.87,107.61 L 112.81,106.42 L 113.75,105.24 L 114.70,104.05 L 115.66,102.88 L 116.64,101.71 L 117.62,100.55 L 118.62,99.40 L 119.64,98.27 L 120.67,97.15 L 121.73,96.04 L 122.81,94.96 L 123.91,93.89 L 125.03,92.86 L 126.19,91.84 L 127.37,90.86 L 128.58,89.92 L 129.83,89.01 L 131.10,88.15 L 132.41,87.33 L 133.76,86.57 L 135.14,85.86 L 136.55,85.22 L 138.00,84.66 L 139.48,84.17 L 141.00,83.76 L 142.55,83.45 L 144.12,83.23 L 145.72,83.13 L 147.33,83.14 L 148.97,83.28 L 150.61,83.54 L 152.25,83.95 L 153.88,84.50 L 155.50,85.20 L 157.09,86.06 L 158.64,87.08 L 160.14,88.26 L 161.57,89.60 L 162.92,91.10 L 164.18,92.75 L 165.34,94.55 L 166.37,96.48 L 167.27,98.53 L 168.02,100.69 L 168.62,102.94 L 169.05,105.25 L 169.31,107.62 L 169.40,110.00 L 169.31,112.38 L 169.05,114.75 L 168.62,117.06 L 168.02,119.31 L 167.27,121.47 L 166.37,123.52 L 165.34,125.45 L 164.18,127.25 L 162.92,128.90 L 161.57,130.40 L 160.14,131.74 L 158.64,132.92 L 157.09,133.94 L 155.50,134.80 L 153.88,135.50 L 152.25,136.05 L 150.61,136.46 L 148.97,136.72 L 147.33,136.86 L 145.72,136.87 L 144.12,136.77 L 142.55,136.55 L 141.00,136.24 L 139.48,135.83 L 138.00,135.34 L 136.55,134.78 L 135.14,134.14 L 133.76,133.43 L 132.41,132.67 L 131.10,131.85 L 129.83,130.99 L 128.58,130.08 L 127.37,129.14 L 126.19,128.16 L 125.03,127.14 L 123.91,126.11 L 122.81,125.04 L 121.73,123.96 L 120.67,122.85 L 119.64,121.73 L 118.62,120.60 L 117.62,119.45 L 116.64,118.29 L 115.66,117.12 L 114.70,115.95 L 113.75,114.76 L 112.81,113.58 L 111.87,112.39 L 110.93,111.19 L 110.00,110.00" fill="none" stroke="#E6A43C" stroke-width="9.24" stroke-linecap="round" stroke-linejoin="round"/>
  <circle cx="93.03" cy="91.19" r="12.47" fill="#12151F"/>
  <circle cx="93.03" cy="91.19" r="8.50" fill="#7FB0E6"/>
  <text x="76.94" y="73.35" font-size="10.1" font-weight="600" fill="#9AA3B2" text-anchor="end" dominant-baseline="middle">PLAN</text>
  <circle cx="50.60" cy="110.00" r="12.47" fill="#12151F"/>
  <circle cx="50.60" cy="110.00" r="8.50" fill="#7FB0E6"/>
  <text x="26.58" y="110.00" font-size="10.1" font-weight="600" fill="#9AA3B2" text-anchor="end" dominant-baseline="middle">BUILD</text>
  <circle cx="93.03" cy="128.81" r="12.47" fill="#12151F"/>
  <circle cx="93.03" cy="128.81" r="8.50" fill="#7FB0E6"/>
  <text x="76.94" y="146.65" font-size="10.1" font-weight="600" fill="#9AA3B2" text-anchor="end" dominant-baseline="middle">TEST</text>
  <circle cx="126.97" cy="91.19" r="12.47" fill="#12151F"/>
  <circle cx="126.97" cy="91.19" r="8.50" fill="#F3CC85"/>
  <text x="143.06" y="73.35" font-size="10.1" font-weight="600" fill="#9AA3B2" text-anchor="start" dominant-baseline="middle">SHIP</text>
  <circle cx="169.40" cy="110.00" r="12.47" fill="#12151F"/>
  <circle cx="169.40" cy="110.00" r="8.50" fill="#F3CC85"/>
  <text x="193.42" y="110.00" font-size="10.1" font-weight="600" fill="#9AA3B2" text-anchor="start" dominant-baseline="middle">OPERATE</text>
  <circle cx="126.97" cy="128.81" r="12.47" fill="#12151F"/>
  <circle cx="126.97" cy="128.81" r="8.50" fill="#F3CC85"/>
  <text x="143.06" y="146.65" font-size="10.1" font-weight="600" fill="#9AA3B2" text-anchor="start" dominant-baseline="middle">OBSERVE</text>
  <circle cx="110.00" cy="110.00" r="15.71" fill="#12151F"/>
  <circle cx="110.00" cy="110.00" r="9.24" fill="#E6A43C"/>
</svg>
