<svg xmlns="http://www.w3.org/2000/svg" viewBox="0 0 64 64" width="64" height="64" fill="none" role="img" aria-label="Spindleloom">
  <path d="M 54.08,32.00 L 54.03,33.16 L 53.88,34.30 L 53.63,35.41 L 53.29,36.46 L 52.86,37.45 L 52.36,38.37 L 51.79,39.20 L 51.17,39.94 L 50.50,40.58 L 49.79,41.12 L 49.06,41.57 L 48.31,41.92 L 47.55,42.18 L 46.79,42.35 L 46.03,42.44 L 45.28,42.46 L 44.54,42.40 L 43.81,42.28 L 43.10,42.10 L 42.41,41.86 L 41.74,41.58 L 41.09,41.26 L 40.46,40.90 L 39.84,40.50 L 39.25,40.08 L 38.68,39.63 L 38.13,39.16 L 37.59,38.67 L 37.07,38.16 L 36.56,37.64 L 36.06,37.11 L 35.58,36.57 L 35.11,36.01 L 34.65,35.45 L 34.20,34.89 L 33.75,34.31 L 33.31,33.74 L 32.87,33.16 L 32.43,32.58 L 32.00,32.00 L 31.57,31.42 L 31.13,30.84 L 30.69,30.26 L 30.25,29.69 L 29.80,29.11 L 29.35,28.55 L 28.89,27.99 L 28.42,27.43 L 27.94,26.89 L 27.44,26.36 L 26.93,25.84 L 26.41,25.33 L 25.87,24.84 L 25.32,24.37 L 24.75,23.92 L 24.16,23.50 L 23.54,23.10 L 22.91,22.74 L 22.26,22.42 L 21.59,22.14 L 20.90,21.90 L 20.19,21.72 L 19.46,21.60 L 18.72,21.54 L 17.97,21.56 L 17.21,21.65 L 16.45,21.82 L 15.69,22.08 L 14.94,22.43 L 14.21,22.88 L 13.50,23.42 L 12.83,24.06 L 12.21,24.80 L 11.64,25.63 L 11.14,26.55 L 10.71,27.54 L 10.37,28.59 L 10.12,29.70 L 9.97,30.84 L 9.92,32.00 L 9.97,33.16 L 10.12,34.30 L 10.37,35.41 L 10.71,36.46 L 11.14,37.45 L 11.64,38.37 L 12.21,39.20 L 12.83,39.94 L 13.50,40.58 L 14.21,41.12 L 14.94,41.57 L 15.69,41.92 L 16.45,42.18 L 17.21,42.35 L 17.97,42.44 L 18.72,42.46 L 19.46,42.40 L 20.19,42.28 L 20.90,42.10 L 21.59,41.86 L 22.26,41.58 L 22.91,41.26 L 23.54,40.90 L 24.16,40.50 L 24.75,40.08 L 25.32,39.63 L 25.87,39.16 L 26.41,38.67 L 26.93,38.16 L 27.44,37.64 L 27.94,37.11 L 28.42,36.57 L 28.89,36.01 L 29.35,35.45 L 29.80,34.89 L 30.25,34.31 L 30.69,33.74 L 31.13,33.16 L 31.57,32.58 L 32.00,32.00 L 32.43,31.42 L 32.87,30.84 L 33.31,30.26 L 33.75,29.69 L 34.20,29.11 L 34.65,28.55 L 35.11,27.99 L 35.58,27.43 L 36.06,26.89 L 36.56,26.36 L 37.07,25.84 L 37.59,25.33 L 38.13,24.84 L 38.68,24.37 L 39.25,23.92 L 39.84,23.50 L 40.46,23.10 L 41.09,22.74 L 41.74,22.42 L 42.41,22.14 L 43.10,21.90 L 43.81,21.72 L 44.54,21.60 L 45.28,21.54 L 46.03,21.56 L 46.79,21.65 L 47.55,21.82 L 48.31,22.08 L 49.06,22.43 L 49.79,22.88 L 50.50,23.42 L 51.17,24.06 L 51.79,24.80 L 52.36,25.63 L 52.86,26.55 L 53.29,27.54 L 53.63,28.59 L 53.88,29.70 L 54.03,30.84 L 54.08,32.00 Z" stroke="currentColor" stroke-width="5.44" stroke-linecap="round" stroke-linejoin="round"/>
  <path d="M 32.00,32.00 L 32.43,31.42 L 32.87,30.84 L 33.31,30.26 L 33.75,29.69 L 34.20,29.11 L 34.65,28.55 L 35.11,27.99 L 35.58,27.43 L 36.06,26.89 L 36.56,26.36 L 37.07,25.84 L 37.59,25.33 L 38.13,24.84 L 38.68,24.37 L 39.25,23.92 L 39.84,23.50 L 40.46,23.10 L 41.09,22.74 L 41.74,22.42 L 42.41,22.14 L 43.10,21.90 L 43.81,21.72 L 44.54,21.60 L 45.28,21.54 L 46.03,21.56 L 46.79,21.65 L 47.55,21.82 L 48.31,22.08 L 49.06,22.43 L 49.79,22.88 L 50.50,23.42 L 51.17,24.06 L 51.79,24.80 L 52.36,25.63 L 52.86,26.55 L 53.29,27.54 L 53.63,28.59 L 53.88,29.70 L 54.03,30.84 L 54.08,32.00 L 54.03,33.16 L 53.88,34.30 L 53.63,35.41 L 53.29,36.46 L 52.86,37.45 L 52.36,38.37 L 51.79,39.20 L 51.17,39.94 L 50.50,40.58 L 49.79,41.12 L 49.06,41.57 L 48.31,41.92 L 47.55,42.18 L 46.79,42.35 L 46.03,42.44 L 45.28,42.46 L 44.54,42.40 L 43.81,42.28 L 43.10,42.10 L 42.41,41.86 L 41.74,41.58 L 41.09,41.26 L 40.46,40.90 L 39.84,40.50 L 39.25,40.08 L 38.68,39.63 L 38.13,39.16 L 37.59,38.67 L 37.07,38.16 L 36.56,37.64 L 36.06,37.11 L 35.58,36.57 L 35.11,36.01 L 34.65,35.45 L 34.20,34.89 L 33.75,34.31 L 33.31,33.74 L 32.87,33.16 L 32.43,32.58 L 32.00,32.00" stroke="currentColor" stroke-width="5.44" stroke-linecap="round" stroke-linejoin="round"/>
  <circle cx="32.00" cy="32.00" r="5.71" fill="currentColor"/>
</svg>
